<svg width="2223" height="822" viewBox="0 0 2223 822" fill="none" xmlns="http://www.w3.org/2000/svg">
<path opacity="0.4" d="M415.347 204.869V227.78C415.347 242.739 405.879 252.206 390.921 252.206H358.543V186.029C358.543 175.521 367.158 167 377.667 167C387.986 167.095 397.454 171.26 404.27 178.077C411.086 184.988 415.347 194.455 415.347 204.869Z" stroke="#292D32" stroke-width="14.201" stroke-miterlimit="10" stroke-linecap="round" stroke-linejoin="round"/>
<path d="M226 214.337V346.88C226 354.737 234.899 359.187 241.148 354.453L257.337 342.335C261.124 339.495 266.426 339.874 269.834 343.282L285.549 359.092C289.242 362.785 295.301 362.785 298.993 359.092L314.898 343.187C318.212 339.874 323.514 339.495 327.206 342.335L343.395 354.453C349.643 359.092 358.543 354.643 358.543 346.88V185.935C358.543 175.521 367.063 167 377.477 167H273.337H263.869C235.467 167 226 183.947 226 204.869V214.337Z" stroke="#292D32" stroke-width="14.201" stroke-miterlimit="10" stroke-linecap="round" stroke-linejoin="round"/>
<path d="M910.347 252.005V299.342C910.347 332.477 891.412 346.678 863.01 346.678H768.337C739.935 346.678 721 332.477 721 299.342V233.07C721 199.935 739.935 185.734 768.337 185.734H834.608" stroke="#292D32" stroke-width="14.201" stroke-miterlimit="10" stroke-linecap="round" stroke-linejoin="round"/>
<path d="M768.337 237.804L797.97 261.472C807.721 269.236 823.721 269.236 833.472 261.472L844.644 252.573" stroke="#292D32" stroke-width="14.201" stroke-miterlimit="10" stroke-linecap="round" stroke-linejoin="round"/>
<path d="M886.679 228.337C899.75 228.337 910.347 217.74 910.347 204.668C910.347 191.597 899.75 181 886.679 181C873.607 181 863.01 191.597 863.01 204.668C863.01 217.74 873.607 228.337 886.679 228.337Z" stroke="#292D32" stroke-width="14.201" stroke-miterlimit="10" stroke-linecap="round" stroke-linejoin="round"/>
<path d="M1805.67 223.919V278.018" stroke="#292D32" stroke-width="16.2297" stroke-linecap="round" stroke-linejoin="round"/>
<path d="M1805.67 375.396C1753.41 375.396 1711 332.983 1711 280.723C1711 228.463 1753.41 186.05 1805.67 186.05C1857.93 186.05 1900.35 228.463 1900.35 280.723" stroke="#292D32" stroke-width="16.2297" stroke-linecap="round" stroke-linejoin="round"/>
<path d="M1773.21 159H1838.13" stroke="#292D32" stroke-width="16.2297" stroke-miterlimit="10" stroke-linecap="round" stroke-linejoin="round"/>
<path d="M1837.05 337.527V324.976C1837.05 309.504 1848.09 303.12 1861.5 310.91L1872.32 317.186L1883.14 323.461C1896.56 331.252 1896.56 343.911 1883.14 351.701L1872.32 357.977L1861.5 364.252C1848.09 372.042 1837.05 365.659 1837.05 350.186V337.527Z" stroke="#292D32" stroke-width="16.2297" stroke-miterlimit="10" stroke-linecap="round" stroke-linejoin="round"/>
<path d="M1195 228.538H1299.14" stroke="#292D32" stroke-width="14.201" stroke-miterlimit="10" stroke-linecap="round" stroke-linejoin="round"/>
<path d="M1232.87 304.276H1251.8" stroke="#292D32" stroke-width="14.201" stroke-miterlimit="10" stroke-linecap="round" stroke-linejoin="round"/>
<path d="M1275.47 304.276H1313.34" stroke="#292D32" stroke-width="14.201" stroke-miterlimit="10" stroke-linecap="round" stroke-linejoin="round"/>
<path d="M1384.35 255.33V300.584C1384.35 333.815 1375.92 342.146 1342.31 342.146H1237.04C1203.43 342.146 1195 333.815 1195 300.584V222.763C1195 189.532 1203.43 181.201 1237.04 181.201H1301.79" stroke="#292D32" stroke-width="14.201" stroke-linecap="round" stroke-linejoin="round"/>
<path d="M1337.01 178.834H1366.64C1373.18 178.834 1378.48 184.799 1378.48 190.668C1378.48 197.201 1373.18 202.503 1366.64 202.503H1337.01V178.834Z" stroke="#292D32" stroke-width="14.201" stroke-miterlimit="10" stroke-linecap="round" stroke-linejoin="round"/>
<path d="M1337.01 202.503H1370.81C1378.29 202.503 1384.35 207.804 1384.35 214.337C1384.35 220.869 1378.29 226.171 1370.81 226.171H1337.01V202.503Z" stroke="#292D32" stroke-width="14.201" stroke-miterlimit="10" stroke-linecap="round" stroke-linejoin="round"/>
<path d="M1353.67 226.171V238.005" stroke="#292D32" stroke-width="14.201" stroke-miterlimit="10" stroke-linecap="round" stroke-linejoin="round"/>
<path d="M1353.67 167V178.834" stroke="#292D32" stroke-width="14.201" stroke-miterlimit="10" stroke-linecap="round" stroke-linejoin="round"/>
<path d="M1348.28 178.834H1327.54" stroke="#292D32" stroke-width="14.201" stroke-miterlimit="10" stroke-linecap="round" stroke-linejoin="round"/>
<path d="M1348.28 226.171H1327.54" stroke="#292D32" stroke-width="14.201" stroke-miterlimit="10" stroke-linecap="round" stroke-linejoin="round"/>
<path d="M650.121 266.121C651.293 264.95 651.293 263.05 650.121 261.879L631.029 242.787C629.858 241.615 627.958 241.615 626.787 242.787C625.615 243.958 625.615 245.858 626.787 247.029L643.757 264L626.787 280.971C625.615 282.142 625.615 284.042 626.787 285.213C627.958 286.385 629.858 286.385 631.029 285.213L650.121 266.121ZM489 267H648V261H489V267Z" fill="black"/>
<path d="M1123.12 269.121C1124.29 267.95 1124.29 266.05 1123.12 264.879L1104.03 245.787C1102.86 244.615 1100.96 244.615 1099.79 245.787C1098.62 246.958 1098.62 248.858 1099.79 250.029L1116.76 267L1099.79 283.971C1098.62 285.142 1098.62 287.042 1099.79 288.213C1100.96 289.385 1102.86 289.385 1104.03 288.213L1123.12 269.121ZM962 270H1121V264H962V270Z" fill="black"/>
<path d="M1639.12 264.121C1640.29 262.95 1640.29 261.05 1639.12 259.879L1620.03 240.787C1618.86 239.615 1616.96 239.615 1615.79 240.787C1614.62 241.958 1614.62 243.858 1615.79 245.029L1632.76 262L1615.79 278.971C1614.62 280.142 1614.62 282.042 1615.79 283.213C1616.96 284.385 1618.86 284.385 1620.03 283.213L1639.12 264.121ZM1478 265H1637V259H1478V265Z" fill="black"/>
<path d="M203.73 441.56V436.091H241.912V441.56H225.904V487H219.739V441.56H203.73ZM250.631 487V448.818H256.498V487H250.631ZM253.614 442.455C252.471 442.455 251.484 442.065 250.656 441.286C249.844 440.507 249.438 439.571 249.438 438.477C249.438 437.384 249.844 436.447 250.656 435.668C251.484 434.889 252.471 434.5 253.614 434.5C254.757 434.5 255.735 434.889 256.547 435.668C257.376 436.447 257.79 437.384 257.79 438.477C257.79 439.571 257.376 440.507 256.547 441.286C255.735 442.065 254.757 442.455 253.614 442.455ZM282.754 487.795C279.174 487.795 276.092 486.95 273.507 485.26C270.921 483.57 268.933 481.241 267.541 478.275C266.149 475.308 265.453 471.92 265.453 468.108C265.453 464.23 266.165 460.808 267.59 457.842C269.032 454.859 271.037 452.53 273.606 450.857C276.191 449.166 279.207 448.321 282.654 448.321C285.339 448.321 287.758 448.818 289.913 449.812C292.067 450.807 293.832 452.199 295.208 453.989C296.583 455.778 297.436 457.866 297.768 460.253H291.901C291.454 458.513 290.46 456.972 288.919 455.629C287.394 454.27 285.339 453.591 282.754 453.591C280.467 453.591 278.462 454.187 276.738 455.381C275.031 456.557 273.697 458.223 272.736 460.377C271.791 462.515 271.319 465.026 271.319 467.909C271.319 470.859 271.783 473.428 272.711 475.615C273.656 477.803 274.981 479.501 276.688 480.711C278.412 481.921 280.434 482.526 282.754 482.526C284.278 482.526 285.662 482.26 286.905 481.73C288.148 481.2 289.2 480.438 290.062 479.443C290.924 478.449 291.537 477.256 291.901 475.864H297.768C297.436 478.117 296.616 480.147 295.307 481.954C294.014 483.744 292.299 485.169 290.161 486.229C288.04 487.273 285.571 487.795 282.754 487.795ZM311.813 473.08L311.713 465.821H312.906L329.611 448.818H336.869L319.071 466.815H318.574L311.813 473.08ZM306.344 487V436.091H312.21V487H306.344ZM330.605 487L315.691 468.108L319.867 464.031L338.063 487H330.605ZM358.856 487.795C355.177 487.795 352.004 486.983 349.336 485.359C346.684 483.719 344.638 481.432 343.196 478.499C341.771 475.549 341.058 472.118 341.058 468.207C341.058 464.296 341.771 460.849 343.196 457.866C344.638 454.867 346.643 452.53 349.211 450.857C351.797 449.166 354.813 448.321 358.26 448.321C360.248 448.321 362.212 448.652 364.151 449.315C366.09 449.978 367.855 451.055 369.446 452.547C371.037 454.022 372.305 455.977 373.249 458.413C374.194 460.849 374.666 463.849 374.666 467.412V469.898H345.234V464.827H368.7C368.7 462.672 368.269 460.75 367.407 459.06C366.562 457.369 365.353 456.035 363.778 455.058C362.22 454.08 360.381 453.591 358.26 453.591C355.923 453.591 353.901 454.171 352.194 455.331C350.504 456.474 349.203 457.966 348.292 459.805C347.38 461.645 346.925 463.617 346.925 465.722V469.102C346.925 471.986 347.422 474.43 348.416 476.435C349.427 478.424 350.827 479.94 352.617 480.984C354.407 482.012 356.487 482.526 358.856 482.526C360.398 482.526 361.79 482.31 363.032 481.879C364.292 481.432 365.377 480.769 366.289 479.891C367.2 478.996 367.905 477.885 368.402 476.56L374.069 478.151C373.473 480.073 372.47 481.763 371.062 483.222C369.653 484.663 367.913 485.79 365.841 486.602C363.77 487.398 361.442 487.795 358.856 487.795ZM400.195 448.818V453.79H380.408V448.818H400.195ZM386.175 439.67H392.042V476.062C392.042 477.72 392.282 478.963 392.763 479.791C393.26 480.603 393.89 481.15 394.652 481.432C395.431 481.697 396.251 481.83 397.113 481.83C397.759 481.83 398.289 481.796 398.704 481.73C399.118 481.647 399.449 481.581 399.698 481.531L400.891 486.801C400.493 486.95 399.938 487.099 399.226 487.249C398.513 487.414 397.61 487.497 396.516 487.497C394.859 487.497 393.235 487.141 391.644 486.428C390.07 485.716 388.76 484.63 387.716 483.172C386.689 481.714 386.175 479.874 386.175 477.653V439.67ZM200.639 572.795C196.96 572.795 193.786 571.983 191.118 570.359C188.466 568.719 186.42 566.432 184.978 563.499C183.553 560.549 182.84 557.118 182.84 553.207C182.84 549.296 183.553 545.849 184.978 542.866C186.42 539.867 188.425 537.53 190.994 535.857C193.579 534.166 196.595 533.321 200.042 533.321C202.031 533.321 203.994 533.652 205.933 534.315C207.872 534.978 209.637 536.055 211.228 537.547C212.819 539.022 214.087 540.977 215.031 543.413C215.976 545.849 216.448 548.849 216.448 552.412V554.898H187.016V549.827H210.482C210.482 547.672 210.051 545.75 209.19 544.06C208.345 542.369 207.135 541.035 205.56 540.058C204.003 539.08 202.163 538.591 200.042 538.591C197.705 538.591 195.684 539.171 193.977 540.331C192.286 541.474 190.985 542.966 190.074 544.805C189.162 546.645 188.707 548.617 188.707 550.722V554.102C188.707 556.986 189.204 559.43 190.198 561.435C191.209 563.424 192.609 564.94 194.399 565.984C196.189 567.012 198.269 567.526 200.639 567.526C202.18 567.526 203.572 567.31 204.815 566.879C206.074 566.432 207.16 565.769 208.071 564.891C208.983 563.996 209.687 562.885 210.184 561.56L215.852 563.151C215.255 565.073 214.252 566.763 212.844 568.222C211.435 569.663 209.695 570.79 207.624 571.602C205.552 572.398 203.224 572.795 200.639 572.795ZM225.372 572V533.818H231.04V539.784H231.537C232.332 537.746 233.617 536.163 235.39 535.036C237.163 533.893 239.293 533.321 241.778 533.321C244.297 533.321 246.394 533.893 248.068 535.036C249.758 536.163 251.075 537.746 252.02 539.784H252.418C253.395 537.812 254.862 536.246 256.818 535.086C258.773 533.909 261.118 533.321 263.852 533.321C267.266 533.321 270.059 534.39 272.229 536.528C274.4 538.649 275.486 541.955 275.486 546.446V572H269.619V546.446C269.619 543.629 268.849 541.615 267.308 540.406C265.766 539.196 263.952 538.591 261.864 538.591C259.179 538.591 257.099 539.403 255.624 541.027C254.149 542.634 253.412 544.673 253.412 547.142V572H247.446V545.849C247.446 543.679 246.742 541.93 245.333 540.604C243.925 539.262 242.11 538.591 239.889 538.591C238.365 538.591 236.939 538.997 235.614 539.809C234.305 540.621 233.244 541.748 232.432 543.19C231.636 544.615 231.239 546.264 231.239 548.136V572H225.372ZM286.212 572V533.818H292.079V572H286.212ZM289.195 527.455C288.052 527.455 287.066 527.065 286.237 526.286C285.425 525.507 285.019 524.571 285.019 523.477C285.019 522.384 285.425 521.447 286.237 520.668C287.066 519.889 288.052 519.5 289.195 519.5C290.339 519.5 291.316 519.889 292.128 520.668C292.957 521.447 293.371 522.384 293.371 523.477C293.371 524.571 292.957 525.507 292.128 526.286C291.316 527.065 290.339 527.455 289.195 527.455ZM319.429 533.818V538.79H299.642V533.818H319.429ZM305.409 524.67H311.275V561.062C311.275 562.72 311.515 563.963 311.996 564.791C312.493 565.603 313.123 566.15 313.885 566.432C314.664 566.697 315.484 566.83 316.346 566.83C316.992 566.83 317.523 566.796 317.937 566.73C318.351 566.647 318.683 566.581 318.931 566.531L320.125 571.801C319.727 571.95 319.172 572.099 318.459 572.249C317.746 572.414 316.843 572.497 315.75 572.497C314.092 572.497 312.468 572.141 310.877 571.428C309.303 570.716 307.994 569.63 306.95 568.172C305.922 566.714 305.409 564.874 305.409 562.653V524.67ZM328.253 572V533.818H334.12V572H328.253ZM331.236 527.455C330.093 527.455 329.107 527.065 328.278 526.286C327.466 525.507 327.06 524.571 327.06 523.477C327.06 522.384 327.466 521.447 328.278 520.668C329.107 519.889 330.093 519.5 331.236 519.5C332.38 519.5 333.357 519.889 334.169 520.668C334.998 521.447 335.412 522.384 335.412 523.477C335.412 524.571 334.998 525.507 334.169 526.286C333.357 527.065 332.38 527.455 331.236 527.455ZM359.282 572.795C356.1 572.795 353.291 571.992 350.855 570.384C348.419 568.76 346.513 566.473 345.138 563.523C343.762 560.557 343.075 557.052 343.075 553.009C343.075 548.998 343.762 545.518 345.138 542.568C346.513 539.618 348.427 537.34 350.88 535.732C353.333 534.125 356.167 533.321 359.381 533.321C361.867 533.321 363.831 533.735 365.273 534.564C366.731 535.376 367.841 536.304 368.604 537.348C369.383 538.375 369.988 539.221 370.418 539.884H370.916V521.091H376.782V572H371.114V566.134H370.418C369.988 566.83 369.374 567.708 368.579 568.768C367.783 569.812 366.648 570.749 365.173 571.577C363.698 572.389 361.735 572.795 359.282 572.795ZM360.078 567.526C362.431 567.526 364.419 566.912 366.043 565.686C367.667 564.443 368.902 562.728 369.747 560.54C370.592 558.336 371.015 555.793 371.015 552.909C371.015 550.059 370.601 547.565 369.772 545.427C368.944 543.272 367.717 541.599 366.093 540.406C364.469 539.196 362.464 538.591 360.078 538.591C357.592 538.591 355.52 539.229 353.863 540.505C352.222 541.764 350.988 543.48 350.159 545.651C349.347 547.805 348.941 550.224 348.941 552.909C348.941 555.627 349.355 558.096 350.184 560.317C351.029 562.521 352.272 564.277 353.913 565.587C355.57 566.879 357.625 567.526 360.078 567.526ZM403.852 572.795C400.405 572.795 397.381 571.975 394.779 570.335C392.194 568.694 390.172 566.399 388.714 563.449C387.272 560.499 386.551 557.052 386.551 553.108C386.551 549.131 387.272 545.659 388.714 542.692C390.172 539.726 392.194 537.423 394.779 535.782C397.381 534.141 400.405 533.321 403.852 533.321C407.299 533.321 410.315 534.141 412.901 535.782C415.502 537.423 417.524 539.726 418.966 542.692C420.424 545.659 421.153 549.131 421.153 553.108C421.153 557.052 420.424 560.499 418.966 563.449C417.524 566.399 415.502 568.694 412.901 570.335C410.315 571.975 407.299 572.795 403.852 572.795ZM403.852 567.526C406.471 567.526 408.625 566.854 410.315 565.512C412.006 564.17 413.257 562.405 414.069 560.217C414.881 558.03 415.287 555.66 415.287 553.108C415.287 550.556 414.881 548.178 414.069 545.974C413.257 543.77 412.006 541.988 410.315 540.629C408.625 539.27 406.471 538.591 403.852 538.591C401.234 538.591 399.08 539.27 397.389 540.629C395.699 541.988 394.448 543.77 393.636 545.974C392.824 548.178 392.418 550.556 392.418 553.108C392.418 555.66 392.824 558.03 393.636 560.217C394.448 562.405 395.699 564.17 397.389 565.512C399.08 566.854 401.234 567.526 403.852 567.526Z" fill="black"/>
<path d="M599.67 487V436.091H616.871C620.849 436.091 624.113 436.77 626.665 438.129C629.217 439.472 631.107 441.319 632.333 443.673C633.559 446.026 634.172 448.702 634.172 451.702C634.172 454.701 633.559 457.361 632.333 459.681C631.107 462.001 629.226 463.824 626.69 465.15C624.155 466.459 620.915 467.114 616.971 467.114H603.05V461.545H616.772C619.49 461.545 621.677 461.148 623.334 460.352C625.008 459.557 626.218 458.43 626.964 456.972C627.726 455.497 628.107 453.74 628.107 451.702C628.107 449.663 627.726 447.882 626.964 446.357C626.201 444.833 624.983 443.656 623.31 442.827C621.636 441.982 619.423 441.56 616.672 441.56H605.834V487H599.67ZM623.633 464.131L636.161 487H629.002L616.672 464.131H623.633ZM659.248 487.795C655.569 487.795 652.395 486.983 649.727 485.359C647.076 483.719 645.029 481.432 643.587 478.499C642.162 475.549 641.45 472.118 641.45 468.207C641.45 464.296 642.162 460.849 643.587 457.866C645.029 454.867 647.034 452.53 649.603 450.857C652.188 449.166 655.204 448.321 658.651 448.321C660.64 448.321 662.604 448.652 664.543 449.315C666.482 449.978 668.247 451.055 669.837 452.547C671.428 454.022 672.696 455.977 673.641 458.413C674.585 460.849 675.058 463.849 675.058 467.412V469.898H645.626V464.827H669.092C669.092 462.672 668.661 460.75 667.799 459.06C666.954 457.369 665.744 456.035 664.17 455.058C662.612 454.08 660.773 453.591 658.651 453.591C656.315 453.591 654.293 454.171 652.586 455.331C650.896 456.474 649.595 457.966 648.683 459.805C647.772 461.645 647.316 463.617 647.316 465.722V469.102C647.316 471.986 647.813 474.43 648.808 476.435C649.819 478.424 651.219 479.94 653.009 480.984C654.798 482.012 656.878 482.526 659.248 482.526C660.789 482.526 662.181 482.31 663.424 481.879C664.684 481.432 665.769 480.769 666.68 479.891C667.592 478.996 668.296 477.885 668.793 476.56L674.461 478.151C673.864 480.073 672.862 481.763 671.453 483.222C670.045 484.663 668.305 485.79 666.233 486.602C664.162 487.398 661.833 487.795 659.248 487.795ZM699.493 487.795C695.913 487.795 692.831 486.95 690.246 485.26C687.661 483.57 685.672 481.241 684.28 478.275C682.888 475.308 682.192 471.92 682.192 468.108C682.192 464.23 682.904 460.808 684.33 457.842C685.771 454.859 687.777 452.53 690.345 450.857C692.93 449.166 695.947 448.321 699.394 448.321C702.078 448.321 704.498 448.818 706.652 449.812C708.806 450.807 710.571 452.199 711.947 453.989C713.322 455.778 714.176 457.866 714.507 460.253H708.641C708.193 458.513 707.199 456.972 705.658 455.629C704.133 454.27 702.078 453.591 699.493 453.591C697.206 453.591 695.201 454.187 693.477 455.381C691.77 456.557 690.436 458.223 689.475 460.377C688.531 462.515 688.058 465.026 688.058 467.909C688.058 470.859 688.522 473.428 689.45 475.615C690.395 477.803 691.721 479.501 693.428 480.711C695.151 481.921 697.173 482.526 699.493 482.526C701.018 482.526 702.401 482.26 703.644 481.73C704.887 481.2 705.939 480.438 706.801 479.443C707.663 478.449 708.276 477.256 708.641 475.864H714.507C714.176 478.117 713.355 480.147 712.046 481.954C710.754 483.744 709.038 485.169 706.901 486.229C704.779 487.273 702.31 487.795 699.493 487.795ZM738.595 487.795C735.148 487.795 732.123 486.975 729.521 485.335C726.936 483.694 724.914 481.399 723.456 478.449C722.014 475.499 721.293 472.052 721.293 468.108C721.293 464.131 722.014 460.659 723.456 457.692C724.914 454.726 726.936 452.423 729.521 450.782C732.123 449.141 735.148 448.321 738.595 448.321C742.042 448.321 745.058 449.141 747.643 450.782C750.245 452.423 752.266 454.726 753.708 457.692C755.167 460.659 755.896 464.131 755.896 468.108C755.896 472.052 755.167 475.499 753.708 478.449C752.266 481.399 750.245 483.694 747.643 485.335C745.058 486.975 742.042 487.795 738.595 487.795ZM738.595 482.526C741.213 482.526 743.367 481.854 745.058 480.512C746.748 479.17 747.999 477.405 748.811 475.217C749.623 473.03 750.029 470.66 750.029 468.108C750.029 465.556 749.623 463.178 748.811 460.974C747.999 458.77 746.748 456.988 745.058 455.629C743.367 454.27 741.213 453.591 738.595 453.591C735.976 453.591 733.822 454.27 732.131 455.629C730.441 456.988 729.19 458.77 728.378 460.974C727.566 463.178 727.16 465.556 727.16 468.108C727.16 470.66 727.566 473.03 728.378 475.217C729.19 477.405 730.441 479.17 732.131 480.512C733.822 481.854 735.976 482.526 738.595 482.526ZM764.851 487V448.818H770.518V454.585H770.916C771.612 452.696 772.872 451.163 774.695 449.987C776.517 448.81 778.572 448.222 780.859 448.222C781.29 448.222 781.829 448.23 782.475 448.246C783.121 448.263 783.61 448.288 783.942 448.321V454.287C783.743 454.237 783.287 454.163 782.574 454.063C781.878 453.947 781.141 453.889 780.362 453.889C778.506 453.889 776.849 454.279 775.391 455.058C773.949 455.82 772.805 456.88 771.96 458.239C771.132 459.582 770.717 461.115 770.717 462.838V487H764.851ZM804.151 487.795C800.969 487.795 798.16 486.992 795.724 485.384C793.288 483.76 791.382 481.473 790.007 478.523C788.632 475.557 787.944 472.052 787.944 468.009C787.944 463.998 788.632 460.518 790.007 457.568C791.382 454.618 793.297 452.34 795.749 450.732C798.202 449.125 801.036 448.321 804.251 448.321C806.736 448.321 808.7 448.735 810.142 449.564C811.6 450.376 812.711 451.304 813.473 452.348C814.252 453.375 814.857 454.221 815.288 454.884H815.785V436.091H821.651V487H815.984V481.134H815.288C814.857 481.83 814.244 482.708 813.448 483.768C812.653 484.812 811.517 485.749 810.043 486.577C808.568 487.389 806.604 487.795 804.151 487.795ZM804.947 482.526C807.3 482.526 809.289 481.912 810.913 480.686C812.537 479.443 813.771 477.728 814.616 475.54C815.462 473.336 815.884 470.793 815.884 467.909C815.884 465.059 815.47 462.565 814.641 460.427C813.813 458.272 812.586 456.599 810.962 455.406C809.338 454.196 807.333 453.591 804.947 453.591C802.461 453.591 800.389 454.229 798.732 455.505C797.092 456.764 795.857 458.48 795.028 460.651C794.216 462.805 793.81 465.224 793.81 467.909C793.81 470.627 794.225 473.096 795.053 475.317C795.898 477.521 797.141 479.277 798.782 480.587C800.439 481.879 802.494 482.526 804.947 482.526ZM844.446 487.895C842.026 487.895 839.831 487.439 837.859 486.528C835.887 485.6 834.32 484.266 833.16 482.526C832 480.769 831.42 478.648 831.42 476.162C831.42 473.974 831.851 472.201 832.713 470.842C833.575 469.467 834.726 468.39 836.168 467.611C837.61 466.832 839.201 466.252 840.941 465.871C842.698 465.473 844.463 465.158 846.236 464.926C848.556 464.628 850.437 464.404 851.878 464.255C853.337 464.089 854.397 463.816 855.06 463.435C855.74 463.054 856.079 462.391 856.079 461.446V461.247C856.079 458.795 855.408 456.889 854.066 455.53C852.74 454.171 850.727 453.491 848.025 453.491C845.225 453.491 843.029 454.105 841.438 455.331C839.847 456.557 838.729 457.866 838.082 459.259L832.514 457.27C833.508 454.95 834.834 453.143 836.491 451.851C838.165 450.542 839.988 449.63 841.96 449.116C843.949 448.586 845.904 448.321 847.827 448.321C849.053 448.321 850.462 448.47 852.052 448.768C853.66 449.05 855.209 449.638 856.701 450.533C858.209 451.428 859.46 452.779 860.454 454.585C861.449 456.392 861.946 458.811 861.946 461.844V487H856.079V481.83H855.781C855.383 482.658 854.721 483.545 853.793 484.489C852.864 485.434 851.63 486.238 850.089 486.901C848.547 487.563 846.667 487.895 844.446 487.895ZM845.341 482.625C847.661 482.625 849.616 482.169 851.207 481.258C852.815 480.346 854.025 479.17 854.837 477.728C855.665 476.286 856.079 474.77 856.079 473.179V467.81C855.831 468.108 855.284 468.381 854.439 468.63C853.61 468.862 852.649 469.069 851.555 469.251C850.478 469.417 849.426 469.566 848.398 469.699C847.387 469.815 846.567 469.914 845.937 469.997C844.413 470.196 842.988 470.519 841.662 470.967C840.353 471.397 839.292 472.052 838.48 472.93C837.685 473.792 837.287 474.969 837.287 476.46C837.287 478.499 838.041 480.04 839.549 481.084C841.074 482.111 843.004 482.625 845.341 482.625ZM889.259 448.818V453.79H869.472V448.818H889.259ZM875.239 439.67H881.105V476.062C881.105 477.72 881.345 478.963 881.826 479.791C882.323 480.603 882.953 481.15 883.715 481.432C884.494 481.697 885.314 481.83 886.176 481.83C886.823 481.83 887.353 481.796 887.767 481.73C888.181 481.647 888.513 481.581 888.761 481.531L889.955 486.801C889.557 486.95 889.002 487.099 888.289 487.249C887.577 487.414 886.673 487.497 885.58 487.497C883.922 487.497 882.298 487.141 880.707 486.428C879.133 485.716 877.824 484.63 876.78 483.172C875.752 481.714 875.239 479.874 875.239 477.653V439.67ZM913.184 487.795C909.737 487.795 906.713 486.975 904.111 485.335C901.526 483.694 899.504 481.399 898.046 478.449C896.604 475.499 895.883 472.052 895.883 468.108C895.883 464.131 896.604 460.659 898.046 457.692C899.504 454.726 901.526 452.423 904.111 450.782C906.713 449.141 909.737 448.321 913.184 448.321C916.631 448.321 919.647 449.141 922.233 450.782C924.834 452.423 926.856 454.726 928.298 457.692C929.756 460.659 930.486 464.131 930.486 468.108C930.486 472.052 929.756 475.499 928.298 478.449C926.856 481.399 924.834 483.694 922.233 485.335C919.647 486.975 916.631 487.795 913.184 487.795ZM913.184 482.526C915.803 482.526 917.957 481.854 919.647 480.512C921.338 479.17 922.589 477.405 923.401 475.217C924.213 473.03 924.619 470.66 924.619 468.108C924.619 465.556 924.213 463.178 923.401 460.974C922.589 458.77 921.338 456.988 919.647 455.629C917.957 454.27 915.803 453.591 913.184 453.591C910.566 453.591 908.412 454.27 906.721 455.629C905.031 456.988 903.78 458.77 902.968 460.974C902.156 463.178 901.75 465.556 901.75 468.108C901.75 470.66 902.156 473.03 902.968 475.217C903.78 477.405 905.031 479.17 906.721 480.512C908.412 481.854 910.566 482.526 913.184 482.526ZM939.441 487V448.818H945.108V454.585H945.506C946.202 452.696 947.461 451.163 949.284 449.987C951.107 448.81 953.162 448.222 955.449 448.222C955.88 448.222 956.419 448.23 957.065 448.246C957.711 448.263 958.2 448.288 958.532 448.321V454.287C958.333 454.237 957.877 454.163 957.164 454.063C956.468 453.947 955.731 453.889 954.952 453.889C953.096 453.889 951.439 454.279 949.98 455.058C948.539 455.82 947.395 456.88 946.55 458.239C945.721 459.582 945.307 461.115 945.307 462.838V487H939.441ZM965.486 487V448.818H971.352V487H965.486ZM968.468 442.455C967.325 442.455 966.339 442.065 965.51 441.286C964.698 440.507 964.292 439.571 964.292 438.477C964.292 437.384 964.698 436.447 965.51 435.668C966.339 434.889 967.325 434.5 968.468 434.5C969.612 434.5 970.59 434.889 971.402 435.668C972.23 436.447 972.645 437.384 972.645 438.477C972.645 439.571 972.23 440.507 971.402 441.286C970.59 442.065 969.612 442.455 968.468 442.455ZM997.608 487.795C994.161 487.795 991.137 486.975 988.535 485.335C985.95 483.694 983.928 481.399 982.47 478.449C981.028 475.499 980.307 472.052 980.307 468.108C980.307 464.131 981.028 460.659 982.47 457.692C983.928 454.726 985.95 452.423 988.535 450.782C991.137 449.141 994.161 448.321 997.608 448.321C1001.06 448.321 1004.07 449.141 1006.66 450.782C1009.26 452.423 1011.28 454.726 1012.72 457.692C1014.18 460.659 1014.91 464.131 1014.91 468.108C1014.91 472.052 1014.18 475.499 1012.72 478.449C1011.28 481.399 1009.26 483.694 1006.66 485.335C1004.07 486.975 1001.06 487.795 997.608 487.795ZM997.608 482.526C1000.23 482.526 1002.38 481.854 1004.07 480.512C1005.76 479.17 1007.01 477.405 1007.82 475.217C1008.64 473.03 1009.04 470.66 1009.04 468.108C1009.04 465.556 1008.64 463.178 1007.82 460.974C1007.01 458.77 1005.76 456.988 1004.07 455.629C1002.38 454.27 1000.23 453.591 997.608 453.591C994.99 453.591 992.835 454.27 991.145 455.629C989.455 456.988 988.204 458.77 987.392 460.974C986.58 463.178 986.174 465.556 986.174 468.108C986.174 470.66 986.58 473.03 987.392 475.217C988.204 477.405 989.455 479.17 991.145 480.512C992.835 481.854 994.99 482.526 997.608 482.526ZM687.428 572.795C683.981 572.795 680.956 571.975 678.354 570.335C675.769 568.694 673.747 566.399 672.289 563.449C670.847 560.499 670.126 557.052 670.126 553.108C670.126 549.131 670.847 545.659 672.289 542.692C673.747 539.726 675.769 537.423 678.354 535.782C680.956 534.141 683.981 533.321 687.428 533.321C690.875 533.321 693.891 534.141 696.476 535.782C699.078 537.423 701.099 539.726 702.541 542.692C704 545.659 704.729 549.131 704.729 553.108C704.729 557.052 704 560.499 702.541 563.449C701.099 566.399 699.078 568.694 696.476 570.335C693.891 571.975 690.875 572.795 687.428 572.795ZM687.428 567.526C690.046 567.526 692.2 566.854 693.891 565.512C695.581 564.17 696.832 562.405 697.644 560.217C698.456 558.03 698.862 555.66 698.862 553.108C698.862 550.556 698.456 548.178 697.644 545.974C696.832 543.77 695.581 541.988 693.891 540.629C692.2 539.27 690.046 538.591 687.428 538.591C684.809 538.591 682.655 539.27 680.964 540.629C679.274 541.988 678.023 543.77 677.211 545.974C676.399 548.178 675.993 550.556 675.993 553.108C675.993 555.66 676.399 558.03 677.211 560.217C678.023 562.405 679.274 564.17 680.964 565.512C682.655 566.854 684.809 567.526 687.428 567.526ZM713.684 586.318V533.818H719.351V539.884H720.047C720.478 539.221 721.075 538.375 721.837 537.348C722.616 536.304 723.726 535.376 725.168 534.564C726.626 533.735 728.599 533.321 731.084 533.321C734.299 533.321 737.133 534.125 739.586 535.732C742.038 537.34 743.952 539.618 745.328 542.568C746.703 545.518 747.391 548.998 747.391 553.009C747.391 557.052 746.703 560.557 745.328 563.523C743.952 566.473 742.047 568.76 739.611 570.384C737.175 571.992 734.366 572.795 731.184 572.795C728.731 572.795 726.767 572.389 725.292 571.577C723.818 570.749 722.682 569.812 721.887 568.768C721.091 567.708 720.478 566.83 720.047 566.134H719.55V586.318H713.684ZM719.451 552.909C719.451 555.793 719.873 558.336 720.719 560.54C721.564 562.728 722.798 564.443 724.422 565.686C726.046 566.912 728.035 567.526 730.388 567.526C732.841 567.526 734.888 566.879 736.528 565.587C738.185 564.277 739.428 562.521 740.257 560.317C741.102 558.096 741.525 555.627 741.525 552.909C741.525 550.224 741.11 547.805 740.282 545.651C739.47 543.48 738.235 541.764 736.578 540.505C734.937 539.229 732.874 538.591 730.388 538.591C728.002 538.591 725.997 539.196 724.373 540.406C722.749 541.599 721.522 543.272 720.694 545.427C719.865 547.565 719.451 550.059 719.451 552.909ZM771.851 572.795C768.272 572.795 765.189 571.95 762.604 570.26C760.019 568.57 758.03 566.241 756.638 563.275C755.246 560.308 754.55 556.92 754.55 553.108C754.55 549.23 755.263 545.808 756.688 542.842C758.13 539.859 760.135 537.53 762.704 535.857C765.289 534.166 768.305 533.321 771.752 533.321C774.437 533.321 776.856 533.818 779.01 534.812C781.165 535.807 782.93 537.199 784.305 538.989C785.681 540.778 786.534 542.866 786.866 545.253H780.999C780.552 543.513 779.557 541.972 778.016 540.629C776.492 539.27 774.437 538.591 771.851 538.591C769.564 538.591 767.559 539.187 765.836 540.381C764.129 541.557 762.795 543.223 761.834 545.377C760.889 547.515 760.417 550.026 760.417 552.909C760.417 555.859 760.881 558.428 761.809 560.615C762.753 562.803 764.079 564.501 765.786 565.711C767.51 566.921 769.531 567.526 771.851 567.526C773.376 567.526 774.76 567.26 776.003 566.73C777.246 566.2 778.298 565.438 779.16 564.443C780.021 563.449 780.635 562.256 780.999 560.864H786.866C786.534 563.117 785.714 565.147 784.405 566.954C783.112 568.744 781.397 570.169 779.259 571.229C777.138 572.273 774.669 572.795 771.851 572.795ZM795.442 572V533.818H801.308V572H795.442ZM798.425 527.455C797.281 527.455 796.295 527.065 795.466 526.286C794.654 525.507 794.248 524.571 794.248 523.477C794.248 522.384 794.654 521.447 795.466 520.668C796.295 519.889 797.281 519.5 798.425 519.5C799.568 519.5 800.546 519.889 801.358 520.668C802.186 521.447 802.601 522.384 802.601 523.477C802.601 524.571 802.186 525.507 801.358 526.286C800.546 527.065 799.568 527.455 798.425 527.455ZM827.564 572.795C824.117 572.795 821.093 571.975 818.491 570.335C815.906 568.694 813.884 566.399 812.426 563.449C810.984 560.499 810.263 557.052 810.263 553.108C810.263 549.131 810.984 545.659 812.426 542.692C813.884 539.726 815.906 537.423 818.491 535.782C821.093 534.141 824.117 533.321 827.564 533.321C831.011 533.321 834.027 534.141 836.613 535.782C839.214 537.423 841.236 539.726 842.678 542.692C844.136 545.659 844.865 549.131 844.865 553.108C844.865 557.052 844.136 560.499 842.678 563.449C841.236 566.399 839.214 568.694 836.613 570.335C834.027 571.975 831.011 572.795 827.564 572.795ZM827.564 567.526C830.183 567.526 832.337 566.854 834.027 565.512C835.718 564.17 836.969 562.405 837.781 560.217C838.593 558.03 838.999 555.66 838.999 553.108C838.999 550.556 838.593 548.178 837.781 545.974C836.969 543.77 835.718 541.988 834.027 540.629C832.337 539.27 830.183 538.591 827.564 538.591C824.946 538.591 822.792 539.27 821.101 540.629C819.411 541.988 818.16 543.77 817.348 545.974C816.536 548.178 816.13 550.556 816.13 553.108C816.13 555.66 816.536 558.03 817.348 560.217C818.16 562.405 819.411 564.17 821.101 565.512C822.792 566.854 824.946 567.526 827.564 567.526ZM859.687 549.031V572H853.82V533.818H859.488V539.784H859.985C860.88 537.845 862.239 536.287 864.062 535.111C865.885 533.918 868.238 533.321 871.122 533.321C873.707 533.321 875.969 533.851 877.908 534.912C879.847 535.956 881.355 537.547 882.432 539.685C883.509 541.806 884.048 544.491 884.048 547.739V572H878.181V548.136C878.181 545.137 877.402 542.8 875.845 541.126C874.287 539.436 872.149 538.591 869.431 538.591C867.559 538.591 865.885 538.997 864.41 539.809C862.952 540.621 861.8 541.806 860.955 543.364C860.11 544.921 859.687 546.811 859.687 549.031ZM906.004 572.895C903.584 572.895 901.388 572.439 899.416 571.528C897.444 570.6 895.878 569.266 894.718 567.526C893.558 565.769 892.978 563.648 892.978 561.162C892.978 558.974 893.409 557.201 894.271 555.842C895.132 554.467 896.284 553.39 897.726 552.611C899.168 551.832 900.759 551.252 902.499 550.871C904.255 550.473 906.02 550.158 907.793 549.926C910.113 549.628 911.994 549.404 913.436 549.255C914.894 549.089 915.955 548.816 916.618 548.435C917.297 548.054 917.637 547.391 917.637 546.446V546.247C917.637 543.795 916.966 541.889 915.624 540.53C914.298 539.171 912.284 538.491 909.583 538.491C906.782 538.491 904.587 539.105 902.996 540.331C901.405 541.557 900.286 542.866 899.64 544.259L894.072 542.27C895.066 539.95 896.392 538.143 898.049 536.851C899.723 535.542 901.546 534.63 903.518 534.116C905.506 533.586 907.462 533.321 909.384 533.321C910.611 533.321 912.019 533.47 913.61 533.768C915.218 534.05 916.767 534.638 918.259 535.533C919.767 536.428 921.018 537.779 922.012 539.585C923.006 541.392 923.504 543.811 923.504 546.844V572H917.637V566.83H917.339C916.941 567.658 916.278 568.545 915.35 569.489C914.422 570.434 913.188 571.238 911.646 571.901C910.105 572.563 908.224 572.895 906.004 572.895ZM906.898 567.625C909.219 567.625 911.174 567.169 912.765 566.258C914.372 565.346 915.582 564.17 916.394 562.728C917.223 561.286 917.637 559.77 917.637 558.179V552.81C917.388 553.108 916.842 553.381 915.996 553.63C915.168 553.862 914.207 554.069 913.113 554.251C912.036 554.417 910.983 554.566 909.956 554.699C908.945 554.815 908.125 554.914 907.495 554.997C905.97 555.196 904.545 555.519 903.219 555.967C901.91 556.397 900.85 557.052 900.038 557.93C899.242 558.792 898.844 559.969 898.844 561.46C898.844 563.499 899.598 565.04 901.107 566.084C902.631 567.111 904.562 567.625 906.898 567.625ZM940.078 521.091V572H934.211V521.091H940.078Z" fill="black"/>
<path d="M1206.74 483H1191.03V432.091H1207.43C1212.37 432.091 1216.6 433.11 1220.11 435.148C1223.63 437.17 1226.32 440.079 1228.19 443.874C1230.06 447.652 1231 452.176 1231 457.446C1231 462.749 1230.06 467.315 1228.17 471.143C1226.28 474.954 1223.53 477.888 1219.91 479.942C1216.3 481.981 1211.91 483 1206.74 483ZM1197.19 477.531H1206.34C1210.55 477.531 1214.04 476.719 1216.81 475.095C1219.57 473.471 1221.64 471.159 1223 468.16C1224.35 465.16 1225.03 461.589 1225.03 457.446C1225.03 453.336 1224.36 449.798 1223.02 446.832C1221.68 443.849 1219.67 441.562 1217 439.971C1214.34 438.363 1211.01 437.56 1207.04 437.56H1197.19V477.531ZM1240.55 483V444.818H1246.41V483H1240.55ZM1240.84 439.648L1246.91 428.114H1253.77L1246.01 439.648H1240.84ZM1268.39 483.895C1265.97 483.895 1263.78 483.439 1261.8 482.528C1259.83 481.6 1258.27 480.266 1257.11 478.526C1255.95 476.769 1255.37 474.648 1255.37 472.162C1255.37 469.974 1255.8 468.201 1256.66 466.842C1257.52 465.467 1258.67 464.39 1260.11 463.611C1261.56 462.832 1263.15 462.252 1264.89 461.871C1266.64 461.473 1268.41 461.158 1270.18 460.926C1272.5 460.628 1274.38 460.404 1275.82 460.255C1277.28 460.089 1278.34 459.816 1279.01 459.435C1279.69 459.054 1280.03 458.391 1280.03 457.446V457.247C1280.03 454.795 1279.35 452.889 1278.01 451.53C1276.69 450.171 1274.67 449.491 1271.97 449.491C1269.17 449.491 1266.98 450.105 1265.38 451.331C1263.79 452.557 1262.67 453.866 1262.03 455.259L1256.46 453.27C1257.45 450.95 1258.78 449.143 1260.44 447.851C1262.11 446.542 1263.93 445.63 1265.91 445.116C1267.9 444.586 1269.85 444.321 1271.77 444.321C1273 444.321 1274.41 444.47 1276 444.768C1277.61 445.05 1279.16 445.638 1280.65 446.533C1282.16 447.428 1283.41 448.779 1284.4 450.585C1285.4 452.392 1285.89 454.811 1285.89 457.844V483H1280.03V477.83H1279.73C1279.33 478.658 1278.67 479.545 1277.74 480.489C1276.81 481.434 1275.58 482.238 1274.03 482.901C1272.49 483.563 1270.61 483.895 1268.39 483.895ZM1269.29 478.625C1271.61 478.625 1273.56 478.169 1275.15 477.258C1276.76 476.346 1277.97 475.17 1278.78 473.728C1279.61 472.286 1280.03 470.77 1280.03 469.179V463.81C1279.78 464.108 1279.23 464.381 1278.39 464.63C1277.56 464.862 1276.6 465.069 1275.5 465.251C1274.42 465.417 1273.37 465.566 1272.34 465.699C1271.33 465.815 1270.51 465.914 1269.88 465.997C1268.36 466.196 1266.93 466.519 1265.61 466.967C1264.3 467.397 1263.24 468.052 1262.43 468.93C1261.63 469.792 1261.23 470.969 1261.23 472.46C1261.23 474.499 1261.99 476.04 1263.5 477.084C1265.02 478.111 1266.95 478.625 1269.29 478.625ZM1330.7 483.795C1327.52 483.795 1324.71 482.992 1322.28 481.384C1319.84 479.76 1317.94 477.473 1316.56 474.523C1315.19 471.557 1314.5 468.052 1314.5 464.009C1314.5 459.998 1315.19 456.518 1316.56 453.568C1317.94 450.618 1319.85 448.34 1322.3 446.732C1324.76 445.125 1327.59 444.321 1330.8 444.321C1333.29 444.321 1335.25 444.735 1336.7 445.564C1338.15 446.376 1339.26 447.304 1340.03 448.348C1340.81 449.375 1341.41 450.221 1341.84 450.884H1342.34V432.091H1348.2V483H1342.54V477.134H1341.84C1341.41 477.83 1340.8 478.708 1340 479.768C1339.21 480.812 1338.07 481.749 1336.6 482.577C1335.12 483.389 1333.16 483.795 1330.7 483.795ZM1331.5 478.526C1333.85 478.526 1335.84 477.912 1337.47 476.686C1339.09 475.443 1340.32 473.728 1341.17 471.54C1342.02 469.336 1342.44 466.793 1342.44 463.909C1342.44 461.059 1342.02 458.565 1341.19 456.427C1340.37 454.272 1339.14 452.599 1337.52 451.406C1335.89 450.196 1333.89 449.591 1331.5 449.591C1329.01 449.591 1326.94 450.229 1325.29 451.505C1323.65 452.764 1322.41 454.48 1321.58 456.651C1320.77 458.805 1320.36 461.224 1320.36 463.909C1320.36 466.627 1320.78 469.096 1321.61 471.317C1322.45 473.521 1323.69 475.277 1325.34 476.587C1326.99 477.879 1329.05 478.526 1331.5 478.526ZM1375.77 483.795C1372.09 483.795 1368.92 482.983 1366.25 481.359C1363.6 479.719 1361.55 477.432 1360.11 474.499C1358.69 471.549 1357.97 468.118 1357.97 464.207C1357.97 460.296 1358.69 456.849 1360.11 453.866C1361.55 450.867 1363.56 448.53 1366.13 446.857C1368.71 445.166 1371.73 444.321 1375.18 444.321C1377.16 444.321 1379.13 444.652 1381.07 445.315C1383.01 445.978 1384.77 447.055 1386.36 448.547C1387.95 450.022 1389.22 451.977 1390.17 454.413C1391.11 456.849 1391.58 459.849 1391.58 463.412V465.898H1362.15V460.827H1385.62C1385.62 458.672 1385.19 456.75 1384.32 455.06C1383.48 453.369 1382.27 452.035 1380.69 451.058C1379.14 450.08 1377.3 449.591 1375.18 449.591C1372.84 449.591 1370.82 450.171 1369.11 451.331C1367.42 452.474 1366.12 453.966 1365.21 455.805C1364.3 457.645 1363.84 459.617 1363.84 461.722V465.102C1363.84 467.986 1364.34 470.43 1365.33 472.435C1366.34 474.424 1367.74 475.94 1369.53 476.984C1371.32 478.012 1373.4 478.526 1375.77 478.526C1377.31 478.526 1378.71 478.31 1379.95 477.879C1381.21 477.432 1382.29 476.769 1383.2 475.891C1384.12 474.996 1384.82 473.885 1385.32 472.56L1390.99 474.151C1390.39 476.073 1389.39 477.763 1387.98 479.222C1386.57 480.663 1384.83 481.79 1382.76 482.602C1380.69 483.398 1378.36 483.795 1375.77 483.795ZM1212.11 582.318V529.818H1217.78V535.884H1218.47C1218.9 535.221 1219.5 534.375 1220.26 533.348C1221.04 532.304 1222.15 531.376 1223.59 530.564C1225.05 529.735 1227.02 529.321 1229.51 529.321C1232.72 529.321 1235.56 530.125 1238.01 531.732C1240.46 533.34 1242.38 535.618 1243.75 538.568C1245.13 541.518 1245.81 544.998 1245.81 549.009C1245.81 553.052 1245.13 556.557 1243.75 559.523C1242.38 562.473 1240.47 564.76 1238.03 566.384C1235.6 567.992 1232.79 568.795 1229.61 568.795C1227.15 568.795 1225.19 568.389 1223.72 567.577C1222.24 566.749 1221.11 565.812 1220.31 564.768C1219.52 563.708 1218.9 562.83 1218.47 562.134H1217.97V582.318H1212.11ZM1217.87 548.909C1217.87 551.793 1218.3 554.336 1219.14 556.54C1219.99 558.728 1221.22 560.443 1222.85 561.686C1224.47 562.912 1226.46 563.526 1228.81 563.526C1231.26 563.526 1233.31 562.879 1234.95 561.587C1236.61 560.277 1237.85 558.521 1238.68 556.317C1239.53 554.096 1239.95 551.627 1239.95 548.909C1239.95 546.224 1239.53 543.805 1238.71 541.651C1237.89 539.48 1236.66 537.764 1235 536.505C1233.36 535.229 1231.3 534.591 1228.81 534.591C1226.43 534.591 1224.42 535.196 1222.8 536.406C1221.17 537.599 1219.95 539.272 1219.12 541.427C1218.29 543.565 1217.87 546.059 1217.87 548.909ZM1266 568.895C1263.58 568.895 1261.38 568.439 1259.41 567.528C1257.44 566.6 1255.87 565.266 1254.71 563.526C1253.55 561.769 1252.97 559.648 1252.97 557.162C1252.97 554.974 1253.4 553.201 1254.27 551.842C1255.13 550.467 1256.28 549.39 1257.72 548.611C1259.16 547.832 1260.75 547.252 1262.49 546.871C1264.25 546.473 1266.02 546.158 1267.79 545.926C1270.11 545.628 1271.99 545.404 1273.43 545.255C1274.89 545.089 1275.95 544.816 1276.61 544.435C1277.29 544.054 1277.63 543.391 1277.63 542.446V542.247C1277.63 539.795 1276.96 537.889 1275.62 536.53C1274.29 535.171 1272.28 534.491 1269.58 534.491C1266.78 534.491 1264.58 535.105 1262.99 536.331C1261.4 537.557 1260.28 538.866 1259.64 540.259L1254.07 538.27C1255.06 535.95 1256.39 534.143 1258.05 532.851C1259.72 531.542 1261.54 530.63 1263.51 530.116C1265.5 529.586 1267.46 529.321 1269.38 529.321C1270.61 529.321 1272.02 529.47 1273.61 529.768C1275.21 530.05 1276.76 530.638 1278.25 531.533C1279.76 532.428 1281.01 533.779 1282.01 535.585C1283 537.392 1283.5 539.811 1283.5 542.844V568H1277.63V562.83H1277.33C1276.94 563.658 1276.27 564.545 1275.35 565.489C1274.42 566.434 1273.18 567.238 1271.64 567.901C1270.1 568.563 1268.22 568.895 1266 568.895ZM1266.89 563.625C1269.21 563.625 1271.17 563.169 1272.76 562.258C1274.37 561.346 1275.58 560.17 1276.39 558.728C1277.22 557.286 1277.63 555.77 1277.63 554.179V548.81C1277.38 549.108 1276.84 549.381 1275.99 549.63C1275.16 549.862 1274.2 550.069 1273.11 550.251C1272.03 550.417 1270.98 550.566 1269.95 550.699C1268.94 550.815 1268.12 550.914 1267.49 550.997C1265.97 551.196 1264.54 551.519 1263.22 551.967C1261.91 552.397 1260.85 553.052 1260.03 553.93C1259.24 554.792 1258.84 555.969 1258.84 557.46C1258.84 559.499 1259.59 561.04 1261.1 562.084C1262.63 563.111 1264.56 563.625 1266.89 563.625ZM1309.62 583.114C1306.79 583.114 1304.35 582.749 1302.31 582.02C1300.27 581.307 1298.57 580.363 1297.22 579.186C1295.87 578.026 1294.8 576.783 1294.01 575.457L1298.68 572.176C1299.21 572.872 1299.88 573.668 1300.7 574.562C1301.51 575.474 1302.62 576.261 1304.03 576.924C1305.45 577.603 1307.32 577.943 1309.62 577.943C1312.7 577.943 1315.25 577.197 1317.25 575.706C1319.26 574.214 1320.26 571.878 1320.26 568.696V560.94H1319.76C1319.33 561.636 1318.72 562.498 1317.92 563.526C1317.14 564.536 1316.02 565.44 1314.54 566.235C1313.08 567.014 1311.11 567.403 1308.62 567.403C1305.54 567.403 1302.77 566.674 1300.32 565.216C1297.89 563.758 1295.96 561.636 1294.53 558.852C1293.12 556.068 1292.42 552.687 1292.42 548.71C1292.42 544.799 1293.11 541.394 1294.48 538.494C1295.86 535.577 1297.77 533.323 1300.22 531.732C1302.68 530.125 1305.51 529.321 1308.72 529.321C1311.21 529.321 1313.18 529.735 1314.64 530.564C1316.12 531.376 1317.24 532.304 1318.02 533.348C1318.82 534.375 1319.43 535.221 1319.86 535.884H1320.46V529.818H1326.12V569.094C1326.12 572.375 1325.38 575.043 1323.89 577.098C1322.41 579.17 1320.42 580.686 1317.92 581.647C1315.44 582.625 1312.67 583.114 1309.62 583.114ZM1309.42 562.134C1311.77 562.134 1313.76 561.595 1315.39 560.518C1317.01 559.441 1318.24 557.891 1319.09 555.869C1319.94 553.848 1320.36 551.428 1320.36 548.611C1320.36 545.86 1319.94 543.432 1319.11 541.327C1318.29 539.223 1317.06 537.574 1315.44 536.381C1313.81 535.187 1311.81 534.591 1309.42 534.591C1306.93 534.591 1304.86 535.221 1303.21 536.48C1301.57 537.74 1300.33 539.43 1299.5 541.551C1298.69 543.672 1298.28 546.026 1298.28 548.611C1298.28 551.262 1298.7 553.607 1299.53 555.646C1300.37 557.667 1301.61 559.258 1303.26 560.418C1304.91 561.562 1306.97 562.134 1309.42 562.134ZM1352.37 568.795C1348.93 568.795 1345.9 567.975 1343.3 566.335C1340.72 564.694 1338.69 562.399 1337.24 559.449C1335.79 556.499 1335.07 553.052 1335.07 549.108C1335.07 545.131 1335.79 541.659 1337.24 538.692C1338.69 535.726 1340.72 533.423 1343.3 531.782C1345.9 530.141 1348.93 529.321 1352.37 529.321C1355.82 529.321 1358.84 530.141 1361.42 531.782C1364.02 533.423 1366.05 535.726 1367.49 538.692C1368.95 541.659 1369.68 545.131 1369.68 549.108C1369.68 553.052 1368.95 556.499 1367.49 559.449C1366.05 562.399 1364.02 564.694 1361.42 566.335C1358.84 567.975 1355.82 568.795 1352.37 568.795ZM1352.37 563.526C1354.99 563.526 1357.15 562.854 1358.84 561.512C1360.53 560.17 1361.78 558.405 1362.59 556.217C1363.4 554.03 1363.81 551.66 1363.81 549.108C1363.81 546.556 1363.4 544.178 1362.59 541.974C1361.78 539.77 1360.53 537.988 1358.84 536.629C1357.15 535.27 1354.99 534.591 1352.37 534.591C1349.76 534.591 1347.6 535.27 1345.91 536.629C1344.22 537.988 1342.97 539.77 1342.16 541.974C1341.35 544.178 1340.94 546.556 1340.94 549.108C1340.94 551.66 1341.35 554.03 1342.16 556.217C1342.97 558.405 1344.22 560.17 1345.91 561.512C1347.6 562.854 1349.76 563.526 1352.37 563.526Z" fill="black"/>
<path d="M1678.69 487V436.091H1695.89C1699.89 436.091 1703.15 436.812 1705.69 438.254C1708.24 439.679 1710.13 441.609 1711.36 444.045C1712.58 446.482 1713.2 449.199 1713.2 452.199C1713.2 455.198 1712.58 457.924 1711.36 460.377C1710.15 462.83 1708.27 464.785 1705.74 466.244C1703.2 467.685 1699.95 468.406 1695.99 468.406H1683.66V462.938H1695.8C1698.53 462.938 1700.73 462.465 1702.38 461.521C1704.04 460.576 1705.24 459.3 1705.99 457.692C1706.75 456.068 1707.13 454.237 1707.13 452.199C1707.13 450.161 1706.75 448.338 1705.99 446.73C1705.24 445.123 1704.03 443.863 1702.36 442.952C1700.68 442.024 1698.46 441.56 1695.7 441.56H1684.86V487H1678.69ZM1746.39 471.389V448.818H1752.26V487H1746.39V480.537H1746C1745.1 482.476 1743.71 484.125 1741.82 485.484C1739.93 486.826 1737.54 487.497 1734.66 487.497C1732.27 487.497 1730.15 486.975 1728.3 485.931C1726.44 484.871 1724.98 483.28 1723.92 481.158C1722.86 479.021 1722.33 476.328 1722.33 473.08V448.818H1728.2V472.682C1728.2 475.466 1728.98 477.687 1730.53 479.344C1732.11 481.001 1734.11 481.83 1736.55 481.83C1738.01 481.83 1739.49 481.457 1741 480.711C1742.52 479.965 1743.8 478.822 1744.83 477.281C1745.87 475.739 1746.39 473.776 1746.39 471.389ZM1790.05 457.369L1784.78 458.861C1784.45 457.982 1783.96 457.129 1783.31 456.3C1782.68 455.455 1781.82 454.759 1780.73 454.212C1779.64 453.665 1778.23 453.392 1776.53 453.392C1774.19 453.392 1772.24 453.931 1770.69 455.008C1769.14 456.068 1768.37 457.419 1768.37 459.06C1768.37 460.518 1768.9 461.67 1769.97 462.515C1771.03 463.36 1772.68 464.064 1774.94 464.628L1780.6 466.02C1784.02 466.848 1786.56 468.116 1788.24 469.823C1789.91 471.513 1790.75 473.693 1790.75 476.361C1790.75 478.548 1790.12 480.504 1788.86 482.227C1787.61 483.951 1785.87 485.31 1783.64 486.304C1781.4 487.298 1778.8 487.795 1775.83 487.795C1771.94 487.795 1768.71 486.95 1766.16 485.26C1763.61 483.57 1761.99 481.1 1761.31 477.852L1766.88 476.46C1767.41 478.515 1768.42 480.056 1769.89 481.084C1771.38 482.111 1773.33 482.625 1775.73 482.625C1778.47 482.625 1780.64 482.045 1782.25 480.885C1783.87 479.708 1784.68 478.3 1784.68 476.659C1784.68 475.333 1784.22 474.223 1783.29 473.328C1782.36 472.417 1780.94 471.737 1779.01 471.29L1772.65 469.798C1769.15 468.97 1766.58 467.685 1764.94 465.945C1763.32 464.189 1762.51 461.993 1762.51 459.358C1762.51 457.204 1763.11 455.298 1764.32 453.641C1765.55 451.983 1767.21 450.683 1769.32 449.738C1771.44 448.793 1773.84 448.321 1776.53 448.321C1780.31 448.321 1783.27 449.15 1785.43 450.807C1787.6 452.464 1789.14 454.652 1790.05 457.369ZM1805.44 464.031V487H1799.58V436.091H1805.44V454.784H1805.94C1806.84 452.812 1808.18 451.246 1809.97 450.086C1811.77 448.909 1814.18 448.321 1817.18 448.321C1819.78 448.321 1822.06 448.843 1824.01 449.887C1825.97 450.915 1827.48 452.497 1828.56 454.635C1829.66 456.756 1830.2 459.457 1830.2 462.739V487H1824.34V463.136C1824.34 460.104 1823.55 457.759 1821.97 456.102C1820.42 454.428 1818.25 453.591 1815.49 453.591C1813.56 453.591 1811.84 453.997 1810.32 454.809C1808.81 455.621 1807.61 456.806 1806.74 458.364C1805.87 459.921 1805.44 461.811 1805.44 464.031ZM1875.04 487.795C1871.86 487.795 1869.05 486.992 1866.61 485.384C1864.18 483.76 1862.27 481.473 1860.9 478.523C1859.52 475.557 1858.83 472.052 1858.83 468.009C1858.83 463.998 1859.52 460.518 1860.9 457.568C1862.27 454.618 1864.19 452.34 1866.64 450.732C1869.09 449.125 1871.92 448.321 1875.14 448.321C1877.63 448.321 1879.59 448.735 1881.03 449.564C1882.49 450.376 1883.6 451.304 1884.36 452.348C1885.14 453.375 1885.75 454.221 1886.18 454.884H1886.67V436.091H1892.54V487H1886.87V481.134H1886.18C1885.75 481.83 1885.13 482.708 1884.34 483.768C1883.54 484.812 1882.41 485.749 1880.93 486.577C1879.46 487.389 1877.49 487.795 1875.04 487.795ZM1875.84 482.526C1878.19 482.526 1880.18 481.912 1881.8 480.686C1883.43 479.443 1884.66 477.728 1885.51 475.54C1886.35 473.336 1886.77 470.793 1886.77 467.909C1886.77 465.059 1886.36 462.565 1885.53 460.427C1884.7 458.272 1883.47 456.599 1881.85 455.406C1880.23 454.196 1878.22 453.591 1875.84 453.591C1873.35 453.591 1871.28 454.229 1869.62 455.505C1867.98 456.764 1866.75 458.48 1865.92 460.651C1865.1 462.805 1864.7 465.224 1864.7 467.909C1864.7 470.627 1865.11 473.096 1865.94 475.317C1866.79 477.521 1868.03 479.277 1869.67 480.587C1871.33 481.879 1873.38 482.526 1875.84 482.526ZM1920.11 487.795C1916.43 487.795 1913.25 486.983 1910.59 485.359C1907.94 483.719 1905.89 481.432 1904.45 478.499C1903.02 475.549 1902.31 472.118 1902.31 468.207C1902.31 464.296 1903.02 460.849 1904.45 457.866C1905.89 454.867 1907.89 452.53 1910.46 450.857C1913.05 449.166 1916.06 448.321 1919.51 448.321C1921.5 448.321 1923.46 448.652 1925.4 449.315C1927.34 449.978 1929.11 451.055 1930.7 452.547C1932.29 454.022 1933.56 455.977 1934.5 458.413C1935.44 460.849 1935.92 463.849 1935.92 467.412V469.898H1906.49V464.827H1929.95C1929.95 462.672 1929.52 460.75 1928.66 459.06C1927.81 457.369 1926.6 456.035 1925.03 455.058C1923.47 454.08 1921.63 453.591 1919.51 453.591C1917.17 453.591 1915.15 454.171 1913.45 455.331C1911.76 456.474 1910.45 457.966 1909.54 459.805C1908.63 461.645 1908.18 463.617 1908.18 465.722V469.102C1908.18 471.986 1908.67 474.43 1909.67 476.435C1910.68 478.424 1912.08 479.94 1913.87 480.984C1915.66 482.012 1917.74 482.526 1920.11 482.526C1921.65 482.526 1923.04 482.31 1924.28 481.879C1925.54 481.432 1926.63 480.769 1927.54 479.891C1928.45 478.996 1929.16 477.885 1929.65 476.56L1935.32 478.151C1934.72 480.073 1933.72 481.763 1932.31 483.222C1930.9 484.663 1929.16 485.79 1927.09 486.602C1925.02 487.398 1922.69 487.795 1920.11 487.795ZM1718.25 572.895C1715.84 572.895 1713.64 572.439 1711.67 571.528C1709.7 570.6 1708.13 569.266 1706.97 567.526C1705.81 565.769 1705.23 563.648 1705.23 561.162C1705.23 558.974 1705.66 557.201 1706.52 555.842C1707.38 554.467 1708.54 553.39 1709.98 552.611C1711.42 551.832 1713.01 551.252 1714.75 550.871C1716.51 550.473 1718.27 550.158 1720.04 549.926C1722.36 549.628 1724.25 549.404 1725.69 549.255C1727.15 549.089 1728.21 548.816 1728.87 548.435C1729.55 548.054 1729.89 547.391 1729.89 546.446V546.247C1729.89 543.795 1729.22 541.889 1727.87 540.53C1726.55 539.171 1724.54 538.491 1721.83 538.491C1719.03 538.491 1716.84 539.105 1715.25 540.331C1713.66 541.557 1712.54 542.866 1711.89 544.259L1706.32 542.27C1707.32 539.95 1708.64 538.143 1710.3 536.851C1711.97 535.542 1713.8 534.63 1715.77 534.116C1717.76 533.586 1719.71 533.321 1721.64 533.321C1722.86 533.321 1724.27 533.47 1725.86 533.768C1727.47 534.05 1729.02 534.638 1730.51 535.533C1732.02 536.428 1733.27 537.779 1734.26 539.585C1735.26 541.392 1735.75 543.811 1735.75 546.844V572H1729.89V566.83H1729.59C1729.19 567.658 1728.53 568.545 1727.6 569.489C1726.67 570.434 1725.44 571.238 1723.9 571.901C1722.36 572.563 1720.48 572.895 1718.25 572.895ZM1719.15 567.625C1721.47 567.625 1723.42 567.169 1725.02 566.258C1726.62 565.346 1727.83 564.17 1728.65 562.728C1729.47 561.286 1729.89 559.77 1729.89 558.179V552.81C1729.64 553.108 1729.09 553.381 1728.25 553.63C1727.42 553.862 1726.46 554.069 1725.36 554.251C1724.29 554.417 1723.23 554.566 1722.21 554.699C1721.2 554.815 1720.38 554.914 1719.75 554.997C1718.22 555.196 1716.8 555.519 1715.47 555.967C1714.16 556.397 1713.1 557.052 1712.29 557.93C1711.49 558.792 1711.1 559.969 1711.1 561.46C1711.1 563.499 1711.85 565.04 1713.36 566.084C1714.88 567.111 1716.81 567.625 1719.15 567.625ZM1763.07 533.818V538.79H1743.28V533.818H1763.07ZM1749.05 524.67H1754.91V561.062C1754.91 562.72 1755.15 563.963 1755.63 564.791C1756.13 565.603 1756.76 566.15 1757.52 566.432C1758.3 566.697 1759.12 566.83 1759.98 566.83C1760.63 566.83 1761.16 566.796 1761.58 566.73C1761.99 566.647 1762.32 566.581 1762.57 566.531L1763.76 571.801C1763.37 571.95 1762.81 572.099 1762.1 572.249C1761.39 572.414 1760.48 572.497 1759.39 572.497C1757.73 572.497 1756.11 572.141 1754.52 571.428C1752.94 570.716 1751.63 569.63 1750.59 568.172C1749.56 566.714 1749.05 564.874 1749.05 562.653V524.67ZM1771.89 572V533.818H1777.56V539.585H1777.96C1778.65 537.696 1779.91 536.163 1781.74 534.987C1783.56 533.81 1785.61 533.222 1787.9 533.222C1788.33 533.222 1788.87 533.23 1789.52 533.246C1790.16 533.263 1790.65 533.288 1790.98 533.321V539.287C1790.78 539.237 1790.33 539.163 1789.62 539.063C1788.92 538.947 1788.18 538.889 1787.4 538.889C1785.55 538.889 1783.89 539.279 1782.43 540.058C1780.99 540.82 1779.85 541.88 1779 543.239C1778.17 544.582 1777.76 546.115 1777.76 547.838V572H1771.89ZM1809.17 572.895C1806.75 572.895 1804.56 572.439 1802.59 571.528C1800.61 570.6 1799.05 569.266 1797.89 567.526C1796.73 565.769 1796.15 563.648 1796.15 561.162C1796.15 558.974 1796.58 557.201 1797.44 555.842C1798.3 554.467 1799.45 553.39 1800.89 552.611C1802.34 551.832 1803.93 551.252 1805.67 550.871C1807.42 550.473 1809.19 550.158 1810.96 549.926C1813.28 549.628 1815.16 549.404 1816.61 549.255C1818.06 549.089 1819.12 548.816 1819.79 548.435C1820.47 548.054 1820.81 547.391 1820.81 546.446V546.247C1820.81 543.795 1820.13 541.889 1818.79 540.53C1817.47 539.171 1815.45 538.491 1812.75 538.491C1809.95 538.491 1807.76 539.105 1806.16 540.331C1804.57 541.557 1803.46 542.866 1802.81 544.259L1797.24 542.27C1798.23 539.95 1799.56 538.143 1801.22 536.851C1802.89 535.542 1804.71 534.63 1806.69 534.116C1808.68 533.586 1810.63 533.321 1812.55 533.321C1813.78 533.321 1815.19 533.47 1816.78 533.768C1818.39 534.05 1819.94 534.638 1821.43 535.533C1822.94 536.428 1824.19 537.779 1825.18 539.585C1826.18 541.392 1826.67 543.811 1826.67 546.844V572H1820.81V566.83H1820.51C1820.11 567.658 1819.45 568.545 1818.52 569.489C1817.59 570.434 1816.36 571.238 1814.82 571.901C1813.27 572.563 1811.39 572.895 1809.17 572.895ZM1810.07 567.625C1812.39 567.625 1814.34 567.169 1815.93 566.258C1817.54 565.346 1818.75 564.17 1819.56 562.728C1820.39 561.286 1820.81 559.77 1820.81 558.179V552.81C1820.56 553.108 1820.01 553.381 1819.17 553.63C1818.34 553.862 1817.38 554.069 1816.28 554.251C1815.2 554.417 1814.15 554.566 1813.12 554.699C1812.11 554.815 1811.29 554.914 1810.66 554.997C1809.14 555.196 1807.71 555.519 1806.39 555.967C1805.08 556.397 1804.02 557.052 1803.21 557.93C1802.41 558.792 1802.01 559.969 1802.01 561.46C1802.01 563.499 1802.77 565.04 1804.28 566.084C1805.8 567.111 1807.73 567.625 1810.07 567.625ZM1864.43 542.369L1859.16 543.861C1858.82 542.982 1858.34 542.129 1857.69 541.3C1857.06 540.455 1856.2 539.759 1855.1 539.212C1854.01 538.665 1852.61 538.392 1850.9 538.392C1848.57 538.392 1846.62 538.931 1845.06 540.008C1843.52 541.068 1842.75 542.419 1842.75 544.06C1842.75 545.518 1843.28 546.67 1844.34 547.515C1845.4 548.36 1847.06 549.064 1849.31 549.628L1854.98 551.02C1858.39 551.848 1860.94 553.116 1862.61 554.823C1864.28 556.513 1865.12 558.693 1865.12 561.361C1865.12 563.548 1864.49 565.504 1863.23 567.227C1861.99 568.951 1860.25 570.31 1858.01 571.304C1855.77 572.298 1853.17 572.795 1850.21 572.795C1846.31 572.795 1843.09 571.95 1840.54 570.26C1837.98 568.57 1836.37 566.1 1835.69 562.852L1841.26 561.46C1841.79 563.515 1842.79 565.056 1844.27 566.084C1845.76 567.111 1847.7 567.625 1850.11 567.625C1852.84 567.625 1855.01 567.045 1856.62 565.885C1858.24 564.708 1859.06 563.3 1859.06 561.659C1859.06 560.333 1858.59 559.223 1857.66 558.328C1856.74 557.417 1855.31 556.737 1853.39 556.29L1847.02 554.798C1843.53 553.97 1840.96 552.685 1839.32 550.945C1837.69 549.189 1836.88 546.993 1836.88 544.358C1836.88 542.204 1837.49 540.298 1838.7 538.641C1839.92 536.983 1841.59 535.683 1843.69 534.738C1845.82 533.793 1848.22 533.321 1850.9 533.321C1854.68 533.321 1857.65 534.15 1859.8 535.807C1861.97 537.464 1863.51 539.652 1864.43 542.369ZM1889.46 572.795C1886.02 572.795 1882.99 571.975 1880.39 570.335C1877.81 568.694 1875.78 566.399 1874.33 563.449C1872.88 560.499 1872.16 557.052 1872.16 553.108C1872.16 549.131 1872.88 545.659 1874.33 542.692C1875.78 539.726 1877.81 537.423 1880.39 535.782C1882.99 534.141 1886.02 533.321 1889.46 533.321C1892.91 533.321 1895.93 534.141 1898.51 535.782C1901.11 537.423 1903.14 539.726 1904.58 542.692C1906.04 545.659 1906.76 549.131 1906.76 553.108C1906.76 557.052 1906.04 560.499 1904.58 563.449C1903.14 566.399 1901.11 568.694 1898.51 570.335C1895.93 571.975 1892.91 572.795 1889.46 572.795ZM1889.46 567.526C1892.08 567.526 1894.24 566.854 1895.93 565.512C1897.62 564.17 1898.87 562.405 1899.68 560.217C1900.49 558.03 1900.9 555.66 1900.9 553.108C1900.9 550.556 1900.49 548.178 1899.68 545.974C1898.87 543.77 1897.62 541.988 1895.93 540.629C1894.24 539.27 1892.08 538.591 1889.46 538.591C1886.85 538.591 1884.69 539.27 1883 540.629C1881.31 541.988 1880.06 543.77 1879.25 545.974C1878.44 548.178 1878.03 550.556 1878.03 553.108C1878.03 555.66 1878.44 558.03 1879.25 560.217C1880.06 562.405 1881.31 564.17 1883 565.512C1884.69 566.854 1886.85 567.526 1889.46 567.526Z" fill="black"/>
</svg>
