<svg width="348" height="86" viewBox="0 0 348 86" fill="none" xmlns="http://www.w3.org/2000/svg">
<path d="M20.6237 34.1011L32.9055 61.545L45.1874 34.1011H65.8382L38.8019 84.5327H27.0092L0 34.1011H20.6237Z" fill="#1B1A6B"/>
<path d="M72.203 78.2831C67.4886 73.1407 65.1382 66.8368 65.1382 59.3712C65.1382 51.9125 67.4886 45.5881 72.203 40.405C76.9309 35.2287 82.936 32.6338 90.2181 32.6338C96.8821 32.6338 102.378 34.7396 106.712 38.9377V34.1011H124.102V84.5327H106.902V78.8265H106.712C102.378 83.6088 96.8821 86 90.2181 86C82.936 86 76.9309 83.4322 72.203 78.2831ZM87.0118 50.812C84.7429 53.0401 83.6153 55.8932 83.6153 59.3712C83.6153 62.8493 84.6886 65.6888 86.8488 67.8761C89.0225 70.0703 91.8756 71.164 95.408 71.164C98.8113 71.164 101.61 70.0499 103.804 67.8218C106.012 65.5937 107.119 62.7813 107.119 59.3712C107.119 55.8932 105.985 53.0401 103.723 50.812C101.454 48.5839 98.6823 47.4698 95.408 47.4698C92.0726 47.4698 89.2739 48.5839 87.0118 50.812Z" fill="#1B1A6B"/>
<path d="M134.913 84.5327V34.1011H152.304V39.4268H152.494C157.018 34.9027 161.841 32.6338 166.949 32.6338C170.625 32.6338 174.069 33.3946 177.275 34.9163C180.481 36.4243 182.906 38.7407 184.557 41.8723C189.665 35.7178 195.222 32.6338 201.241 32.6338C206.621 32.6338 211.24 34.1486 215.099 37.1715C218.971 40.1809 220.913 44.8884 220.913 51.3011V84.5327H203.523V56.0291C203.523 53.3526 202.776 51.1109 201.295 49.3175C199.828 47.5106 197.613 46.6003 194.665 46.6003C192.111 46.6003 190.161 47.3747 188.823 48.9099C187.478 50.452 186.744 52.2997 186.622 54.4531V84.5327H169.205V56.0291C169.205 53.3526 168.471 51.1109 167.004 49.3175C165.537 47.5106 163.322 46.6003 160.374 46.6003C157.691 46.6003 155.673 47.4358 154.314 49.1001C152.969 50.7712 152.304 52.7548 152.304 55.0509V84.5327H134.913Z" fill="#1B1A6B"/>
<path d="M282.597 40.4051C287.325 45.5882 289.689 51.9125 289.689 59.3712C289.689 66.8368 287.325 73.1408 282.597 78.2831C277.882 83.4322 271.898 86 264.636 86C257.952 86 252.442 83.6088 248.115 78.8265H247.925V84.5327H230.725V0H248.115V38.9378C252.442 34.7397 257.952 32.6338 264.636 32.6338C271.898 32.6338 277.882 35.2288 282.597 40.4051ZM267.978 67.8761C270.132 65.6888 271.212 62.8493 271.212 59.3712C271.212 55.8932 270.077 53.0401 267.815 50.812C265.567 48.5839 262.768 47.4698 259.419 47.4698C256.138 47.4698 253.366 48.5839 251.104 50.812C248.856 53.0401 247.735 55.8932 247.735 59.3712C247.735 62.7814 248.829 65.5937 251.023 67.8218C253.21 70.0499 256.009 71.164 259.419 71.164C262.965 71.164 265.818 70.0703 267.978 67.8761Z" fill="#1B1A6B"/>
<path d="M347.862 61.7352H311.315C311.315 65.2676 312.456 67.8897 314.739 69.588C317.035 71.293 319.528 72.1422 322.211 72.1422C325.037 72.1422 327.265 71.7753 328.895 71.0281C330.539 70.2673 332.407 68.7728 334.493 66.5447L347.074 72.8486C341.836 81.6185 333.121 86 320.934 86C313.339 86 306.818 83.405 301.37 78.2016C295.936 72.9845 293.218 66.7077 293.218 59.3712C293.218 52.0347 295.936 45.7512 301.37 40.5137C306.818 35.2627 313.339 32.6338 320.934 32.6338C328.923 32.6338 335.424 34.9434 340.444 39.5627C345.457 44.182 347.97 50.7848 347.97 59.3712C347.97 60.5532 347.93 61.3412 347.862 61.7352ZM311.804 52.0891H330.961C330.56 49.4806 329.527 47.4698 327.863 46.0569C326.192 44.6439 324.045 43.9374 321.423 43.9374C318.543 43.9374 316.247 44.6982 314.549 46.2199C312.844 47.7279 311.926 49.6843 311.804 52.0891Z" fill="#1B1A6B"/>
</svg>
